<svg id="BACKGROUND_2" data-name="BACKGROUND 2" xmlns="http://www.w3.org/2000/svg" viewBox="0 0 84.8 80.2"><defs><style>.cls-1{fill:#00ceb5;}</style></defs><path class="cls-1" d="M26.8,78.4A1.8,1.8,0,1,1,25,76.6,1.8,1.8,0,0,1,26.8,78.4Z"/><path class="cls-1" d="M38.4,78.4a1.8,1.8,0,1,1-1.8-1.8A1.8,1.8,0,0,1,38.4,78.4Z"/><path class="cls-1" d="M50,78.4a1.8,1.8,0,1,1-1.8-1.8A1.8,1.8,0,0,1,50,78.4Z"/><path class="cls-1" d="M61.6,78.4a1.8,1.8,0,1,1-1.8-1.8A1.8,1.8,0,0,1,61.6,78.4Z"/><path class="cls-1" d="M15.2,67.4a1.9,1.9,0,0,1-1.8,1.9,1.9,1.9,0,0,1-1.8-1.9,1.8,1.8,0,1,1,3.6,0Z"/><path class="cls-1" d="M26.8,67.4a1.8,1.8,0,1,1-3.6,0,1.8,1.8,0,1,1,3.6,0Z"/><path class="cls-1" d="M38.4,67.4a1.8,1.8,0,1,1-3.6,0,1.8,1.8,0,0,1,3.6,0Z"/><path class="cls-1" d="M50,67.4a1.8,1.8,0,1,1-3.6,0,1.8,1.8,0,0,1,3.6,0Z"/><path class="cls-1" d="M61.6,67.4a1.8,1.8,0,1,1-3.6,0,1.8,1.8,0,1,1,3.6,0Z"/><path class="cls-1" d="M73.2,67.4a1.9,1.9,0,0,1-1.8,1.9,2,2,0,0,1-1.9-1.9,1.9,1.9,0,0,1,1.9-1.8A1.8,1.8,0,0,1,73.2,67.4Z"/><path class="cls-1" d="M15.2,56.5a1.8,1.8,0,1,1-1.8-1.8A1.8,1.8,0,0,1,15.2,56.5Z"/><path class="cls-1" d="M26.8,56.5A1.8,1.8,0,1,1,25,54.7,1.8,1.8,0,0,1,26.8,56.5Z"/><path class="cls-1" d="M38.4,56.5a1.8,1.8,0,1,1-1.8-1.8A1.8,1.8,0,0,1,38.4,56.5Z"/><path class="cls-1" d="M50,56.5a1.8,1.8,0,1,1-1.8-1.8A1.8,1.8,0,0,1,50,56.5Z"/><path class="cls-1" d="M61.6,56.5a1.8,1.8,0,1,1-1.8-1.8A1.8,1.8,0,0,1,61.6,56.5Z"/><path class="cls-1" d="M73.2,56.5a1.8,1.8,0,0,1-1.8,1.8,1.8,1.8,0,1,1,0-3.6A1.8,1.8,0,0,1,73.2,56.5Z"/><path class="cls-1" d="M3.6,45.6a1.8,1.8,0,1,1-1.8-1.8A1.8,1.8,0,0,1,3.6,45.6Z"/><path class="cls-1" d="M15.2,45.6a1.8,1.8,0,1,1-1.8-1.8A1.8,1.8,0,0,1,15.2,45.6Z"/><path class="cls-1" d="M26.8,45.6A1.8,1.8,0,1,1,25,43.8,1.8,1.8,0,0,1,26.8,45.6Z"/><path class="cls-1" d="M38.4,45.6a1.8,1.8,0,1,1-1.8-1.8A1.8,1.8,0,0,1,38.4,45.6Z"/><path class="cls-1" d="M50,45.6a1.8,1.8,0,1,1-1.8-1.8A1.8,1.8,0,0,1,50,45.6Z"/><path class="cls-1" d="M61.6,45.6a1.8,1.8,0,1,1-1.8-1.8A1.8,1.8,0,0,1,61.6,45.6Z"/><path class="cls-1" d="M73.2,45.6a1.8,1.8,0,0,1-1.8,1.8,1.8,1.8,0,1,1,0-3.6A1.8,1.8,0,0,1,73.2,45.6Z"/><path class="cls-1" d="M84.8,45.6a1.9,1.9,0,0,1-1.9,1.8,1.8,1.8,0,1,1,0-3.6A1.9,1.9,0,0,1,84.8,45.6Z"/><path class="cls-1" d="M3.6,34.6a1.8,1.8,0,1,1-1.8-1.8A1.8,1.8,0,0,1,3.6,34.6Z"/><path class="cls-1" d="M15.2,34.6a1.8,1.8,0,1,1-1.8-1.8A1.8,1.8,0,0,1,15.2,34.6Z"/><path class="cls-1" d="M26.8,34.6A1.8,1.8,0,1,1,25,32.8,1.8,1.8,0,0,1,26.8,34.6Z"/><path class="cls-1" d="M38.4,34.6a1.8,1.8,0,1,1-1.8-1.8A1.8,1.8,0,0,1,38.4,34.6Z"/><path class="cls-1" d="M50,34.6a1.8,1.8,0,1,1-1.8-1.8A1.8,1.8,0,0,1,50,34.6Z"/><path class="cls-1" d="M61.6,34.6a1.8,1.8,0,1,1-1.8-1.8A1.8,1.8,0,0,1,61.6,34.6Z"/><path class="cls-1" d="M73.2,34.6a1.8,1.8,0,0,1-1.8,1.8,1.8,1.8,0,1,1,0-3.6A1.8,1.8,0,0,1,73.2,34.6Z"/><path class="cls-1" d="M84.8,34.6a1.9,1.9,0,0,1-1.9,1.8,1.8,1.8,0,1,1,0-3.6A1.9,1.9,0,0,1,84.8,34.6Z"/><path class="cls-1" d="M15.2,23.7a1.8,1.8,0,1,1-1.8-1.8A1.8,1.8,0,0,1,15.2,23.7Z"/><path class="cls-1" d="M26.8,23.7A1.8,1.8,0,1,1,25,21.9,1.8,1.8,0,0,1,26.8,23.7Z"/><path class="cls-1" d="M38.4,23.7a1.8,1.8,0,1,1-1.8-1.8A1.8,1.8,0,0,1,38.4,23.7Z"/><path class="cls-1" d="M50,23.7a1.8,1.8,0,1,1-1.8-1.8A1.8,1.8,0,0,1,50,23.7Z"/><path class="cls-1" d="M61.6,23.7a1.8,1.8,0,1,1-1.8-1.8A1.8,1.8,0,0,1,61.6,23.7Z"/><path class="cls-1" d="M73.2,23.7a1.8,1.8,0,0,1-1.8,1.8,1.8,1.8,0,1,1,0-3.6A1.8,1.8,0,0,1,73.2,23.7Z"/><path class="cls-1" d="M15.2,12.8a1.8,1.8,0,1,1-3.6,0,1.9,1.9,0,0,1,1.8-1.9A1.9,1.9,0,0,1,15.2,12.8Z"/><path class="cls-1" d="M26.8,12.8a1.8,1.8,0,1,1-3.6,0,1.8,1.8,0,1,1,3.6,0Z"/><path class="cls-1" d="M38.4,12.8a1.8,1.8,0,1,1-3.6,0,1.8,1.8,0,1,1,3.6,0Z"/><path class="cls-1" d="M50,12.8a1.8,1.8,0,1,1-3.6,0,1.8,1.8,0,1,1,3.6,0Z"/><path class="cls-1" d="M61.6,12.8a1.8,1.8,0,0,1-3.6,0,1.8,1.8,0,1,1,3.6,0Z"/><path class="cls-1" d="M73.2,12.8a1.8,1.8,0,0,1-1.8,1.8,1.9,1.9,0,0,1-1.9-1.8,2,2,0,0,1,1.9-1.9A1.9,1.9,0,0,1,73.2,12.8Z"/><path class="cls-1" d="M26.8,1.8A1.8,1.8,0,1,1,25,0,1.8,1.8,0,0,1,26.8,1.8Z"/><path class="cls-1" d="M38.4,1.8A1.8,1.8,0,1,1,36.6,0,1.8,1.8,0,0,1,38.4,1.8Z"/><path class="cls-1" d="M50,1.8A1.8,1.8,0,1,1,48.2,0,1.8,1.8,0,0,1,50,1.8Z"/><path class="cls-1" d="M61.6,1.8A1.8,1.8,0,1,1,59.8,0,1.8,1.8,0,0,1,61.6,1.8Z"/></svg>