<svg id="BACKGROUND_2" data-name="BACKGROUND 2" xmlns="http://www.w3.org/2000/svg" viewBox="0 0 139.1 131.7"><defs><style>.cls-1{fill:none;stroke:#101011;stroke-linecap:round;stroke-linejoin:round;stroke-width:1.18px;}</style></defs><path class="cls-1" d="M6.5,128.1a3,3,0,0,1-3,3,3,3,0,0,1-2.9-3,2.9,2.9,0,0,1,2.9-2.9A2.9,2.9,0,0,1,6.5,128.1Z"/><circle class="cls-1" cx="22.4" cy="128.1" r="2.9"/><circle class="cls-1" cx="41.2" cy="128.1" r="2.9"/><circle class="cls-1" cx="60.1" cy="128.1" r="2.9"/><circle class="cls-1" cx="79" cy="128.1" r="2.9"/><circle class="cls-1" cx="97.8" cy="128.1" r="2.9"/><circle class="cls-1" cx="116.7" cy="128.1" r="2.9"/><path class="cls-1" d="M138.5,128.1a3,3,0,1,1-5.9,0,3,3,0,0,1,5.9,0Z"/><path class="cls-1" d="M6.5,110.3a3,3,0,0,1-3,3,3,3,0,0,1-2.9-3,2.9,2.9,0,0,1,2.9-2.9A2.9,2.9,0,0,1,6.5,110.3Z"/><circle class="cls-1" cx="22.4" cy="110.3" r="2.9"/><circle class="cls-1" cx="41.2" cy="110.3" r="2.9"/><circle class="cls-1" cx="60.1" cy="110.3" r="2.9"/><circle class="cls-1" cx="79" cy="110.3" r="2.9"/><circle class="cls-1" cx="97.8" cy="110.3" r="2.9"/><circle class="cls-1" cx="116.7" cy="110.3" r="2.9"/><path class="cls-1" d="M138.5,110.3a3,3,0,1,1-5.9,0,3,3,0,0,1,5.9,0Z"/><path class="cls-1" d="M6.5,92.5a3,3,0,1,1-5.9,0,2.9,2.9,0,0,1,2.9-2.9A2.9,2.9,0,0,1,6.5,92.5Z"/><circle class="cls-1" cx="22.4" cy="92.5" r="2.9"/><circle class="cls-1" cx="41.2" cy="92.5" r="2.9"/><circle class="cls-1" cx="60.1" cy="92.5" r="2.9"/><circle class="cls-1" cx="79" cy="92.5" r="2.9"/><circle class="cls-1" cx="97.8" cy="92.5" r="2.9"/><circle class="cls-1" cx="116.7" cy="92.5" r="2.9"/><path class="cls-1" d="M138.5,92.5a3,3,0,1,1-5.9,0,3,3,0,0,1,5.9,0Z"/><path class="cls-1" d="M6.5,74.7a3,3,0,1,1-5.9,0,2.9,2.9,0,0,1,2.9-2.9A2.9,2.9,0,0,1,6.5,74.7Z"/><path class="cls-1" d="M25.3,74.7a2.9,2.9,0,0,1-2.9,3,3,3,0,1,1,0-5.9A2.9,2.9,0,0,1,25.3,74.7Z"/><path class="cls-1" d="M44.2,74.7a3,3,0,1,1-5.9,0,3,3,0,0,1,5.9,0Z"/><path class="cls-1" d="M63.1,74.7a3,3,0,0,1-3,3,3,3,0,0,1,0-5.9A3,3,0,0,1,63.1,74.7Z"/><path class="cls-1" d="M81.9,74.7A3,3,0,1,1,79,71.8,2.9,2.9,0,0,1,81.9,74.7Z"/><path class="cls-1" d="M100.8,74.7a3,3,0,0,1-3,3,3,3,0,0,1,0-5.9A3,3,0,0,1,100.8,74.7Z"/><path class="cls-1" d="M119.6,74.7a2.9,2.9,0,0,1-2.9,3,3,3,0,1,1,0-5.9A2.9,2.9,0,0,1,119.6,74.7Z"/><path class="cls-1" d="M138.5,74.7a3,3,0,1,1-5.9,0,3,3,0,0,1,5.9,0Z"/><path class="cls-1" d="M6.5,56.9a3,3,0,1,1-5.9,0A2.9,2.9,0,0,1,3.5,54,2.9,2.9,0,0,1,6.5,56.9Z"/><path class="cls-1" d="M25.3,56.9a2.9,2.9,0,0,1-2.9,3,3,3,0,1,1,0-5.9A2.9,2.9,0,0,1,25.3,56.9Z"/><path class="cls-1" d="M44.2,56.9a3,3,0,1,1-5.9,0,3,3,0,0,1,5.9,0Z"/><path class="cls-1" d="M63.1,56.9a3,3,0,0,1-3,3,3,3,0,0,1,0-5.9A3,3,0,0,1,63.1,56.9Z"/><path class="cls-1" d="M81.9,56.9A3,3,0,1,1,79,54,2.9,2.9,0,0,1,81.9,56.9Z"/><path class="cls-1" d="M100.8,56.9a3,3,0,0,1-3,3,3,3,0,0,1,0-5.9A3,3,0,0,1,100.8,56.9Z"/><path class="cls-1" d="M119.6,56.9a2.9,2.9,0,0,1-2.9,3,3,3,0,1,1,0-5.9A2.9,2.9,0,0,1,119.6,56.9Z"/><path class="cls-1" d="M138.5,56.9a3,3,0,1,1-5.9,0,3,3,0,0,1,5.9,0Z"/><path class="cls-1" d="M6.5,39.1a3,3,0,1,1-5.9,0,2.9,2.9,0,0,1,2.9-2.9A2.9,2.9,0,0,1,6.5,39.1Z"/><path class="cls-1" d="M25.3,39.1a2.9,2.9,0,0,1-2.9,3,3,3,0,1,1,0-5.9A2.9,2.9,0,0,1,25.3,39.1Z"/><path class="cls-1" d="M44.2,39.1a3,3,0,1,1-5.9,0,3,3,0,0,1,5.9,0Z"/><path class="cls-1" d="M63.1,39.1a3,3,0,0,1-3,3,3,3,0,0,1,0-5.9A3,3,0,0,1,63.1,39.1Z"/><path class="cls-1" d="M81.9,39.1A3,3,0,1,1,79,36.2,2.9,2.9,0,0,1,81.9,39.1Z"/><path class="cls-1" d="M100.8,39.1a3,3,0,0,1-3,3,3,3,0,0,1,0-5.9A3,3,0,0,1,100.8,39.1Z"/><path class="cls-1" d="M119.6,39.1a2.9,2.9,0,0,1-2.9,3,3,3,0,1,1,0-5.9A2.9,2.9,0,0,1,119.6,39.1Z"/><path class="cls-1" d="M138.5,39.1a3,3,0,1,1-5.9,0,3,3,0,0,1,5.9,0Z"/><path class="cls-1" d="M6.5,21.3a3,3,0,1,1-5.9,0,2.9,2.9,0,0,1,2.9-2.9A2.9,2.9,0,0,1,6.5,21.3Z"/><circle class="cls-1" cx="22.4" cy="21.3" r="2.9"/><circle class="cls-1" cx="41.2" cy="21.3" r="2.9"/><circle class="cls-1" cx="60.1" cy="21.3" r="2.9"/><circle class="cls-1" cx="79" cy="21.3" r="2.9"/><circle class="cls-1" cx="97.8" cy="21.3" r="2.9"/><circle class="cls-1" cx="116.7" cy="21.3" r="2.9"/><path class="cls-1" d="M138.5,21.3a3,3,0,1,1-5.9,0,3,3,0,0,1,5.9,0Z"/><path class="cls-1" d="M6.5,3.5a3,3,0,1,1-5.9,0A2.9,2.9,0,0,1,3.5.6,2.9,2.9,0,0,1,6.5,3.5Z"/><circle class="cls-1" cx="22.4" cy="3.5" r="2.9"/><circle class="cls-1" cx="41.2" cy="3.5" r="2.9"/><circle class="cls-1" cx="60.1" cy="3.5" r="2.9"/><circle class="cls-1" cx="79" cy="3.5" r="2.9"/><circle class="cls-1" cx="97.8" cy="3.5" r="2.9"/><circle class="cls-1" cx="116.7" cy="3.5" r="2.9"/><path class="cls-1" d="M138.5,3.5a3,3,0,1,1-5.9,0,3,3,0,0,1,5.9,0Z"/></svg>