<svg id="BACKGROUND_2" data-name="BACKGROUND 2" xmlns="http://www.w3.org/2000/svg" viewBox="0 0 79.6 110.4"><defs><style>.cls-1,.cls-2,.cls-3{fill:none;}.cls-1,.cls-3{stroke:#101011;stroke-miterlimit:10;}.cls-1{stroke-width:1.35px;}.cls-2{stroke:#00ceb5;stroke-linecap:round;stroke-linejoin:round;stroke-width:0.64px;}</style></defs><line class="cls-1" x1="16.5" y1="2.4" x2="77.2" y2="63.1"/><line class="cls-1" x1="68.6" y1="71.6" x2="8" y2="11"/><path class="cls-1" d="M16.5,11A6.1,6.1,0,0,1,8,11,6,6,0,0,1,8,2.4a6.1,6.1,0,0,1,8.5,0A6,6,0,0,1,16.5,11Z"/><path class="cls-1" d="M77.2,63.1a6.1,6.1,0,0,1,0,8.5,6,6,0,0,1-8.6,0"/><line class="cls-2" x1="0.3" y1="69.5" x2="7.9" y2="77.1"/><line class="cls-2" x1="8.2" y1="64.9" x2="37.3" y2="94"/><line class="cls-2" x1="16" y1="60.4" x2="65.8" y2="110.1"/><line class="cls-2" x1="23.9" y1="55.9" x2="65.8" y2="97.7"/><line class="cls-2" x1="31.8" y1="51.3" x2="65.8" y2="85.3"/><line class="cls-2" x1="39.6" y1="46.8" x2="65.8" y2="72.9"/><line class="cls-2" x1="47.5" y1="42.2" x2="65.8" y2="60.5"/><line class="cls-2" x1="55.4" y1="37.7" x2="65.8" y2="48.1"/><line class="cls-2" x1="63.2" y1="33.2" x2="65.8" y2="35.7"/><rect class="cls-3" x="74.3" y="1.3" width="8.9" height="8.94" rx="0.4" transform="translate(27.1 -54) rotate(45)"/></svg>