<svg id="BACKGROUND_2" data-name="BACKGROUND 2" xmlns="http://www.w3.org/2000/svg" xmlns:xlink="http://www.w3.org/1999/xlink" viewBox="0 0 180.3 188.5"><defs><style>.cls-1,.cls-5{fill:none;}.cls-2{fill:#101011;}.cls-3{fill:#00ceb5;}.cls-4{clip-path:url(#clip-path);}.cls-5{stroke:#f9f7f7;stroke-miterlimit:10;stroke-width:0.56px;}</style><clipPath id="clip-path"><rect class="cls-1" x="39.1" y="21.6" width="104.1" height="104.11" transform="translate(78.8 -42.9) rotate(45)"/></clipPath></defs><path class="cls-2" d="M4.8,97.8a2.8,2.8,0,1,1,0-4A2.8,2.8,0,0,1,4.8,97.8Z"/><path class="cls-2" d="M17.7,110.6a2.7,2.7,0,0,1-4,0,2.8,2.8,0,1,1,4,0Z"/><path class="cls-2" d="M30.5,123.5a2.8,2.8,0,1,1,0-4A2.8,2.8,0,0,1,30.5,123.5Z"/><path class="cls-2" d="M43.3,136.3a2.8,2.8,0,1,1,0-4A2.8,2.8,0,0,1,43.3,136.3Z"/><path class="cls-2" d="M56.2,149.1a2.8,2.8,0,1,1,0-4A2.8,2.8,0,0,1,56.2,149.1Z"/><path class="cls-2" d="M69,162a2.8,2.8,0,1,1,0-4A2.8,2.8,0,0,1,69,162Z"/><path class="cls-2" d="M81.8,174.8a2.8,2.8,0,1,1,0-4A2.8,2.8,0,0,1,81.8,174.8Z"/><path class="cls-2" d="M94.7,187.6a2.8,2.8,0,1,1,0-4A2.8,2.8,0,0,1,94.7,187.6Z"/><path class="cls-2" d="M17,85.7a3,3,0,0,1-4.1,0,2.8,2.8,0,0,1,0-4,3,3,0,0,1,4.1,0A2.8,2.8,0,0,1,17,85.7Z"/><path class="cls-2" d="M29.8,98.5a2.8,2.8,0,1,1,0-4A2.8,2.8,0,0,1,29.8,98.5Z"/><path class="cls-2" d="M42.6,111.4a2.8,2.8,0,0,1-4-4,2.7,2.7,0,0,1,4,0A2.8,2.8,0,0,1,42.6,111.4Z"/><path class="cls-2" d="M55.4,124.2a2.8,2.8,0,1,1,0-4A2.7,2.7,0,0,1,55.4,124.2Z"/><path class="cls-2" d="M68.3,137a2.8,2.8,0,1,1,0-4A2.8,2.8,0,0,1,68.3,137Z"/><path class="cls-2" d="M81.1,149.9a2.8,2.8,0,0,1-4-4,2.7,2.7,0,0,1,4,0A2.8,2.8,0,0,1,81.1,149.9Z"/><path class="cls-2" d="M93.9,162.7a2.8,2.8,0,1,1,0-4A2.7,2.7,0,0,1,93.9,162.7Z"/><path class="cls-2" d="M106.8,175.5a2.8,2.8,0,1,1,0-4A2.8,2.8,0,0,1,106.8,175.5Z"/><path class="cls-2" d="M29.1,73.6a2.8,2.8,0,0,1-4,0,2.7,2.7,0,0,1,0-4,2.8,2.8,0,0,1,4,4Z"/><circle class="cls-2" cx="39.9" cy="84.4" r="2.8"/><circle class="cls-2" cx="52.7" cy="97.2" r="2.8"/><circle class="cls-2" cx="65.6" cy="110.1" r="2.8"/><circle class="cls-2" cx="78.4" cy="122.9" r="2.8"/><circle class="cls-2" cx="91.2" cy="135.7" r="2.8"/><circle class="cls-2" cx="104.1" cy="148.6" r="2.8"/><circle class="cls-2" cx="116.9" cy="161.4" r="2.8"/><path class="cls-2" d="M41.2,61.5a2.8,2.8,0,1,1,0-4A2.8,2.8,0,0,1,41.2,61.5Z"/><path class="cls-2" d="M54,74.3a2.8,2.8,0,1,1,0-4A2.8,2.8,0,0,1,54,74.3Z"/><path class="cls-2" d="M66.8,87.1a2.7,2.7,0,0,1-4,0,2.8,2.8,0,1,1,4,0Z"/><path class="cls-2" d="M79.7,100a2.8,2.8,0,1,1,0-4A2.8,2.8,0,0,1,79.7,100Z"/><path class="cls-2" d="M92.5,112.8a2.8,2.8,0,1,1,0-4A2.8,2.8,0,0,1,92.5,112.8Z"/><path class="cls-2" d="M105.3,125.6a2.8,2.8,0,1,1,0-4A2.8,2.8,0,0,1,105.3,125.6Z"/><path class="cls-2" d="M118.2,138.5a2.8,2.8,0,1,1,0-4A2.8,2.8,0,0,1,118.2,138.5Z"/><path class="cls-2" d="M131,151.3a2.8,2.8,0,1,1,0-4A2.8,2.8,0,0,1,131,151.3Z"/><path class="cls-2" d="M53.3,49.4a2.8,2.8,0,0,1-4-4,2.7,2.7,0,0,1,4,0A2.8,2.8,0,0,1,53.3,49.4Z"/><path class="cls-2" d="M66.1,62.2a2.8,2.8,0,1,1,0-4A2.8,2.8,0,0,1,66.1,62.2Z"/><path class="cls-2" d="M79,75a3,3,0,0,1-4.1,0,2.8,2.8,0,0,1,0-4A3,3,0,0,1,79,71,2.8,2.8,0,0,1,79,75Z"/><path class="cls-2" d="M91.8,87.9a2.8,2.8,0,0,1-4-4,2.7,2.7,0,0,1,4,0A2.8,2.8,0,0,1,91.8,87.9Z"/><path class="cls-2" d="M104.6,100.7a2.8,2.8,0,1,1,0-4A2.8,2.8,0,0,1,104.6,100.7Z"/><path class="cls-2" d="M117.4,113.5a2.8,2.8,0,1,1,0-4A2.7,2.7,0,0,1,117.4,113.5Z"/><path class="cls-2" d="M130.3,126.4a2.8,2.8,0,0,1-4-4,2.7,2.7,0,0,1,4,0A2.8,2.8,0,0,1,130.3,126.4Z"/><path class="cls-2" d="M143.1,139.2a2.8,2.8,0,1,1,0-4A2.8,2.8,0,0,1,143.1,139.2Z"/><circle class="cls-2" cx="63.4" cy="35.2" r="2.8"/><circle class="cls-2" cx="76.2" cy="48.1" r="2.8"/><circle class="cls-2" cx="89.1" cy="60.9" r="2.8"/><circle class="cls-2" cx="101.9" cy="73.7" r="2.8"/><circle class="cls-2" cx="114.7" cy="86.6" r="2.8"/><circle class="cls-2" cx="127.6" cy="99.4" r="2.8"/><circle class="cls-2" cx="140.4" cy="112.2" r="2.8"/><circle class="cls-2" cx="153.2" cy="125.1" r="2.8"/><path class="cls-2" d="M77.5,25.1a2.7,2.7,0,0,1-4,0,2.8,2.8,0,1,1,4,0Z"/><path class="cls-2" d="M90.3,38a2.8,2.8,0,1,1,0-4A2.8,2.8,0,0,1,90.3,38Z"/><path class="cls-2" d="M103.2,50.8a2.8,2.8,0,1,1,0-4A2.8,2.8,0,0,1,103.2,50.8Z"/><path class="cls-2" d="M116,63.6a2.8,2.8,0,1,1,0-4A2.8,2.8,0,0,1,116,63.6Z"/><path class="cls-2" d="M128.8,76.5a2.8,2.8,0,1,1,0-4A2.8,2.8,0,0,1,128.8,76.5Z"/><path class="cls-2" d="M141.7,89.3a2.8,2.8,0,1,1,0-4A2.8,2.8,0,0,1,141.7,89.3Z"/><path class="cls-2" d="M154.5,102.1a2.8,2.8,0,1,1,0-4A2.8,2.8,0,0,1,154.5,102.1Z"/><path class="cls-2" d="M167.3,115a2.8,2.8,0,1,1,0-4A2.8,2.8,0,0,1,167.3,115Z"/><path class="cls-2" d="M89.6,13a2.8,2.8,0,1,1,0-4A2.8,2.8,0,0,1,89.6,13Z"/><path class="cls-2" d="M102.5,25.9a3,3,0,0,1-4.1,0,2.8,2.8,0,0,1,0-4,2.8,2.8,0,0,1,4.1,0A2.8,2.8,0,0,1,102.5,25.9Z"/><path class="cls-2" d="M115.3,38.7a2.8,2.8,0,1,1,0-4A2.8,2.8,0,0,1,115.3,38.7Z"/><path class="cls-2" d="M128.1,51.5a2.8,2.8,0,1,1,0-4A2.8,2.8,0,0,1,128.1,51.5Z"/><path class="cls-2" d="M141,64.4a3,3,0,0,1-4.1,0,2.8,2.8,0,0,1,0-4,2.8,2.8,0,0,1,4.1,0A2.8,2.8,0,0,1,141,64.4Z"/><path class="cls-2" d="M153.8,77.2a2.8,2.8,0,1,1,0-4A2.8,2.8,0,0,1,153.8,77.2Z"/><path class="cls-2" d="M166.6,90a2.8,2.8,0,1,1,0-4A2.8,2.8,0,0,1,166.6,90Z"/><path class="cls-2" d="M179.4,102.9a2.8,2.8,0,0,1-4,0,3,3,0,0,1,0-4.1,2.8,2.8,0,0,1,4,0A2.8,2.8,0,0,1,179.4,102.9Z"/><rect class="cls-3" x="39.1" y="21.6" width="104.1" height="104.11" transform="translate(78.8 -42.9) rotate(45)"/><g class="cls-4"><circle class="cls-5" cx="91.2" cy="73.6" r="67.9"/><circle class="cls-5" cx="91.2" cy="73.6" r="54.1"/><circle class="cls-5" cx="91.2" cy="73.6" r="40.3"/><path class="cls-5" d="M109.9,92.3a26.4,26.4,0,1,1,0-37.4A26.5,26.5,0,0,1,109.9,92.3Z"/><circle class="cls-5" cx="91.2" cy="73.6" r="12.6"/></g></svg>