<svg id="BACKGROUND_2" data-name="BACKGROUND 2" xmlns="http://www.w3.org/2000/svg" xmlns:xlink="http://www.w3.org/1999/xlink" viewBox="0 0 112 108.8"><defs><style>.cls-1,.cls-5{fill:none;}.cls-2{fill:#101011;}.cls-3{fill:#00ceb5;}.cls-4{clip-path:url(#clip-path);}.cls-5{stroke:#101011;stroke-miterlimit:10;stroke-width:1.66px;}</style><clipPath id="clip-path"><rect class="cls-1" width="100.3" height="100.32"/></clipPath></defs><path class="cls-2" d="M22.1,106.8a2,2,0,1,1-2-2A2,2,0,0,1,22.1,106.8Z"/><path class="cls-2" d="M34.9,106.8a2,2,0,1,1-2-2A2,2,0,0,1,34.9,106.8Z"/><path class="cls-2" d="M47.8,106.8a2,2,0,1,1-2-2A2,2,0,0,1,47.8,106.8Z"/><path class="cls-2" d="M60.6,106.8a2,2,0,1,1-2-2A2,2,0,0,1,60.6,106.8Z"/><path class="cls-2" d="M73.5,106.8a2,2,0,1,1-2-2A2,2,0,0,1,73.5,106.8Z"/><path class="cls-2" d="M86.3,106.8a2,2,0,1,1-2-2A2,2,0,0,1,86.3,106.8Z"/><path class="cls-2" d="M99.2,106.8a2,2,0,1,1-2-2A2,2,0,0,1,99.2,106.8Z"/><path class="cls-2" d="M112,106.8a2,2,0,1,1-2-2A2,2,0,0,1,112,106.8Z"/><path class="cls-2" d="M22.1,94.7a2,2,0,1,1-2-2A2,2,0,0,1,22.1,94.7Z"/><path class="cls-2" d="M34.9,94.7a2,2,0,1,1-2-2A2,2,0,0,1,34.9,94.7Z"/><path class="cls-2" d="M47.8,94.7a2,2,0,1,1-2-2A2,2,0,0,1,47.8,94.7Z"/><path class="cls-2" d="M60.6,94.7a2,2,0,1,1-2-2A2,2,0,0,1,60.6,94.7Z"/><path class="cls-2" d="M73.5,94.7a2,2,0,1,1-2-2A2,2,0,0,1,73.5,94.7Z"/><path class="cls-2" d="M86.3,94.7a2,2,0,1,1-2-2A2,2,0,0,1,86.3,94.7Z"/><path class="cls-2" d="M99.2,94.7a2,2,0,1,1-2-2A2,2,0,0,1,99.2,94.7Z"/><path class="cls-2" d="M112,94.7a2,2,0,1,1-2-2A2,2,0,0,1,112,94.7Z"/><path class="cls-2" d="M22.1,82.5a2,2,0,1,1-4,0,2,2,0,0,1,4,0Z"/><path class="cls-2" d="M34.9,82.5a2,2,0,1,1-4,0,2,2,0,0,1,4,0Z"/><path class="cls-2" d="M47.8,82.5a2,2,0,1,1-4,0,2,2,0,0,1,4,0Z"/><path class="cls-2" d="M60.6,82.5a2,2,0,1,1-4,0,2,2,0,0,1,4,0Z"/><path class="cls-2" d="M73.5,82.5a2,2,0,1,1-4,0,2,2,0,0,1,4,0Z"/><path class="cls-2" d="M86.3,82.5a2,2,0,1,1-4,0,2,2,0,0,1,4,0Z"/><path class="cls-2" d="M99.2,82.5a2,2,0,1,1-4,0,2,2,0,0,1,4,0Z"/><path class="cls-2" d="M112,82.5a2,2,0,1,1-4,0,2,2,0,0,1,4,0Z"/><path class="cls-2" d="M22.1,70.4a2,2,0,1,1-2-2A2,2,0,0,1,22.1,70.4Z"/><path class="cls-2" d="M34.9,70.4a2,2,0,1,1-2-2A2,2,0,0,1,34.9,70.4Z"/><path class="cls-2" d="M47.8,70.4a2,2,0,1,1-2-2A2,2,0,0,1,47.8,70.4Z"/><path class="cls-2" d="M60.6,70.4a2,2,0,1,1-2-2A2,2,0,0,1,60.6,70.4Z"/><path class="cls-2" d="M73.5,70.4a2,2,0,1,1-2-2A2,2,0,0,1,73.5,70.4Z"/><path class="cls-2" d="M86.3,70.4a2,2,0,1,1-2-2A2,2,0,0,1,86.3,70.4Z"/><path class="cls-2" d="M99.2,70.4a2,2,0,1,1-2-2A2,2,0,0,1,99.2,70.4Z"/><path class="cls-2" d="M112,70.4a2,2,0,1,1-2-2A2,2,0,0,1,112,70.4Z"/><circle class="cls-2" cx="20.1" cy="58.3" r="2"/><path class="cls-2" d="M34.9,58.3a2,2,0,1,1-2-2A2,2,0,0,1,34.9,58.3Z"/><circle class="cls-2" cx="45.8" cy="58.3" r="2"/><circle class="cls-2" cx="58.6" cy="58.3" r="2"/><circle class="cls-2" cx="71.5" cy="58.3" r="2"/><circle class="cls-2" cx="84.3" cy="58.3" r="2"/><path class="cls-2" d="M99.2,58.3a2,2,0,1,1-2-2A2,2,0,0,1,99.2,58.3Z"/><circle class="cls-2" cx="110" cy="58.3" r="2"/><circle class="cls-2" cx="20.1" cy="46.2" r="2"/><path class="cls-2" d="M34.9,46.2a2,2,0,1,1-2-2A2,2,0,0,1,34.9,46.2Z"/><circle class="cls-2" cx="45.8" cy="46.2" r="2"/><circle class="cls-2" cx="58.6" cy="46.2" r="2"/><circle class="cls-2" cx="71.5" cy="46.2" r="2"/><circle class="cls-2" cx="84.3" cy="46.2" r="2"/><path class="cls-2" d="M99.2,46.2a2,2,0,1,1-2-2A2,2,0,0,1,99.2,46.2Z"/><circle class="cls-2" cx="110" cy="46.2" r="2"/><circle class="cls-2" cx="20.1" cy="34" r="2"/><path class="cls-2" d="M34.9,34a2,2,0,1,1-4,0,2,2,0,0,1,4,0Z"/><circle class="cls-2" cx="45.8" cy="34" r="2"/><circle class="cls-2" cx="58.6" cy="34" r="2"/><circle class="cls-2" cx="71.5" cy="34" r="2"/><circle class="cls-2" cx="84.3" cy="34" r="2"/><path class="cls-2" d="M99.2,34a2,2,0,1,1-4,0,2,2,0,1,1,4,0Z"/><circle class="cls-2" cx="110" cy="34" r="2"/><circle class="cls-2" cx="20.1" cy="21.9" r="2"/><path class="cls-2" d="M34.9,21.9a2,2,0,1,1-2-2A2,2,0,0,1,34.9,21.9Z"/><circle class="cls-2" cx="45.8" cy="21.9" r="2"/><circle class="cls-2" cx="58.6" cy="21.9" r="2"/><circle class="cls-2" cx="71.5" cy="21.9" r="2"/><circle class="cls-2" cx="84.3" cy="21.9" r="2"/><path class="cls-2" d="M99.2,21.9a2,2,0,1,1-2-2A2,2,0,0,1,99.2,21.9Z"/><circle class="cls-2" cx="110" cy="21.9" r="2"/><rect class="cls-3" width="100.3" height="100.32"/><g class="cls-4"><circle class="cls-5" cx="50.2" cy="50.2" r="65.4"/><circle class="cls-5" cx="50.2" cy="50.2" r="52.1"/><circle class="cls-5" cx="50.2" cy="50.2" r="38.8"/><circle class="cls-5" cx="50.2" cy="50.2" r="25.5" transform="translate(-20.6 55.8) rotate(-49.5)"/><circle class="cls-5" cx="50.2" cy="50.2" r="12.2" transform="translate(-20.8 50.2) rotate(-45)"/></g></svg>