<?xml version="1.0" encoding="UTF-8"?>
<svg width="58px" height="173px" viewBox="0 0 58 173" version="1.1" xmlns="http://www.w3.org/2000/svg" xmlns:xlink="http://www.w3.org/1999/xlink">
    <title>3139839-28</title>
    <g id="Page-1" stroke="none" stroke-width="1" fill="none" fill-rule="evenodd" stroke-linecap="round" stroke-linejoin="round">
        <g id="3139839-28" transform="translate(0.500000, 0.500000)" stroke="#44D7B6">
            <polyline id="Path" points="56.8 0 41.1 28.6 56.8 57.2 41.1 85.8 56.8 114.4 41.1 143 56.8 171.6"></polyline>
            <polyline id="Path" points="43.1 0 27.4 28.6 43.1 57.2 27.4 85.8 43.1 114.4 27.4 143 43.1 171.6"></polyline>
            <polyline id="Path" points="29.4 0 13.7 28.6 29.4 57.2 13.7 85.8 29.4 114.4 13.7 143 29.4 171.6"></polyline>
            <polyline id="Path" points="15.7 0 0 28.6 15.7 57.2 0 85.8 15.7 114.4 0 143 15.7 171.6"></polyline>
        </g>
    </g>
</svg>