<svg id="BACKGROUND_2" data-name="BACKGROUND 2" xmlns="http://www.w3.org/2000/svg" viewBox="0 0 62.4 65.9"><defs><style>.cls-1{fill:none;stroke:#101011;stroke-linecap:round;stroke-linejoin:round;stroke-width:0.5px;}</style></defs><circle class="cls-1" cx="1.6" cy="1.6" r="1.4"/><path class="cls-1" d="M1.6,12a1.4,1.4,0,0,1,0-2.8,1.4,1.4,0,0,1,0,2.8Z"/><circle class="cls-1" cx="1.6" cy="19.5" r="1.4"/><circle class="cls-1" cx="1.6" cy="28.5" r="1.4"/><circle class="cls-1" cx="1.6" cy="37.4" r="1.4"/><circle class="cls-1" cx="1.6" cy="46.4" r="1.4"/><path class="cls-1" d="M1.6,56.7a1.4,1.4,0,0,1,0-2.8,1.4,1.4,0,0,1,0,2.8Z"/><circle class="cls-1" cx="1.6" cy="64.3" r="1.4"/><circle class="cls-1" cx="10.1" cy="1.6" r="1.4"/><path class="cls-1" d="M10.1,12a1.4,1.4,0,1,1,1.4-1.4A1.4,1.4,0,0,1,10.1,12Z"/><circle class="cls-1" cx="10.1" cy="19.5" r="1.4"/><circle class="cls-1" cx="10.1" cy="28.5" r="1.4"/><circle class="cls-1" cx="10.1" cy="37.4" r="1.4"/><circle class="cls-1" cx="10.1" cy="46.4" r="1.4"/><path class="cls-1" d="M10.1,56.7a1.4,1.4,0,1,1,1.4-1.4A1.4,1.4,0,0,1,10.1,56.7Z"/><circle class="cls-1" cx="18.5" cy="1.6" r="1.4"/><path class="cls-1" d="M18.5,12a1.4,1.4,0,1,1,0-2.8,1.4,1.4,0,0,1,0,2.8Z"/><circle class="cls-1" cx="18.5" cy="19.5" r="1.4"/><circle class="cls-1" cx="18.5" cy="28.5" r="1.4"/><circle class="cls-1" cx="18.5" cy="37.4" r="1.4"/><circle class="cls-1" cx="18.5" cy="46.4" r="1.4"/><circle class="cls-1" cx="27" cy="1.6" r="1.4"/><path class="cls-1" d="M27,12a1.4,1.4,0,1,1,0-2.8A1.4,1.4,0,0,1,27,12Z"/><circle class="cls-1" cx="27" cy="19.5" r="1.4"/><circle class="cls-1" cx="27" cy="28.5" r="1.4"/><circle class="cls-1" cx="27" cy="37.4" r="1.4"/><circle class="cls-1" cx="35.4" cy="1.6" r="1.4"/><path class="cls-1" d="M35.4,12a1.4,1.4,0,1,1,1.4-1.4A1.4,1.4,0,0,1,35.4,12Z"/><circle class="cls-1" cx="35.4" cy="19.5" r="1.4"/><circle class="cls-1" cx="35.4" cy="28.5" r="1.4"/><path class="cls-1" d="M43.9,3a1.4,1.4,0,0,1-1.4-1.4A1.4,1.4,0,0,1,43.9.2a1.5,1.5,0,0,1,1.4,1.4A1.4,1.4,0,0,1,43.9,3Z"/><path class="cls-1" d="M43.9,12a1.4,1.4,0,1,1,0-2.8,1.4,1.4,0,0,1,0,2.8Z"/><path class="cls-1" d="M43.9,20.9a1.4,1.4,0,0,1-1.4-1.4,1.4,1.4,0,0,1,1.4-1.4,1.5,1.5,0,0,1,1.4,1.4A1.4,1.4,0,0,1,43.9,20.9Z"/><path class="cls-1" d="M52.3,3a1.4,1.4,0,0,1-1.4-1.4,1.4,1.4,0,1,1,2.8,0A1.4,1.4,0,0,1,52.3,3Z"/><path class="cls-1" d="M52.3,12a1.4,1.4,0,1,1,1.4-1.4A1.4,1.4,0,0,1,52.3,12Z"/><path class="cls-1" d="M60.7,3a1.4,1.4,0,0,1-1.4-1.4A1.5,1.5,0,0,1,60.7.2a1.4,1.4,0,0,1,1.4,1.4A1.4,1.4,0,0,1,60.7,3Z"/></svg>