<svg id="BACKGROUND_2" data-name="BACKGROUND 2" xmlns="http://www.w3.org/2000/svg" xmlns:xlink="http://www.w3.org/1999/xlink" viewBox="0 0 56 56"><defs><style>.cls-1,.cls-4{fill:none;}.cls-2{fill:#101011;}.cls-3{clip-path:url(#clip-path);}.cls-4{stroke:#f9f7f7;stroke-miterlimit:10;stroke-width:0.65px;}</style><clipPath id="clip-path"><rect class="cls-1" width="56" height="55.97"/></clipPath></defs><rect class="cls-2" width="56" height="55.97"/><g class="cls-3"><path class="cls-4" d="M-62,45.4s37-92.1,139.4-75"/><path class="cls-4" d="M-57.6,49.8s37-92.1,139.4-75"/><path class="cls-4" d="M-53.2,54.2S-16.2-38,86.2-20.9"/><path class="cls-4" d="M-48.8,58.6s37-92.2,139.4-75.1"/><path class="cls-4" d="M-44.4,62.9S-7.5-29.2,95-12.1"/><path class="cls-4" d="M-40,67.3S-3.1-24.8,99.4-7.7"/><path class="cls-4" d="M-35.7,71.7s37-92.1,139.4-75"/><path class="cls-4" d="M-31.3,76.1S5.7-16,108.1,1.1"/><path class="cls-4" d="M-26.9,80.5s37-92.1,139.4-75"/><path class="cls-4" d="M-22.5,84.9S14.5-7.3,116.9,9.8"/><path class="cls-4" d="M-18.1,89.3s37-92.2,139.4-75.1"/><path class="cls-4" d="M-13.7,93.6s36.9-92.1,139.4-75"/><path class="cls-4" d="M-9.4,98s37-92.1,139.5-75"/><path class="cls-4" d="M-5,102.4s37-92.1,139.4-75"/><path class="cls-4" d="M-.6,106.8s37-92.1,139.4-75"/><path class="cls-4" d="M3.8,111.2S40.8,19,143.2,36.1"/><path class="cls-4" d="M8.2,115.6s37-92.2,139.4-75.1"/><path class="cls-4" d="M12.6,119.9S49.5,27.8,152,44.9"/><path class="cls-4" d="M17,124.3s36.9-92.1,139.4-75"/><path class="cls-4" d="M21.3,128.7s37-92.1,139.4-75"/><path class="cls-4" d="M25.7,133.1s37-92.1,139.4-75"/></g></svg>