<svg id="BACKGROUND_2" data-name="BACKGROUND 2" xmlns="http://www.w3.org/2000/svg" viewBox="0 0 62 60.8"><defs><style>.cls-1{fill:#101011;}.cls-2{fill:none;stroke:#00ceb5;stroke-miterlimit:10;stroke-width:0.89px;}</style></defs><path class="cls-1" d="M1.8,39.8a1,1,0,0,1-.9,1,1,1,0,0,1-.9-1,.9.9,0,0,1,1.8,0Z"/><path class="cls-1" d="M7.7,39.8a1,1,0,0,1-.9,1,1,1,0,0,1-.9-1,.9.9,0,0,1,1.8,0Z"/><path class="cls-1" d="M13.6,39.8a1,1,0,0,1-.9,1,1,1,0,0,1-.9-1,.9.9,0,0,1,1.8,0Z"/><path class="cls-1" d="M19.5,39.8a.9.9,0,1,1-1.8,0,.9.9,0,1,1,1.8,0Z"/><path class="cls-1" d="M25.4,39.8a.9.9,0,1,1-1.8,0,.9.9,0,0,1,1.8,0Z"/><path class="cls-1" d="M31.3,39.8a.9.9,0,1,1-1.8,0,.9.9,0,0,1,1.8,0Z"/><path class="cls-1" d="M37.2,39.8a1,1,0,0,1-.9,1,1.1,1.1,0,0,1-1-1,1,1,0,0,1,1-.9A.9.9,0,0,1,37.2,39.8Z"/><path class="cls-1" d="M43.1,39.8a1,1,0,0,1-.9,1,1,1,0,0,1-1-1,.9.9,0,0,1,1-.9A.9.9,0,0,1,43.1,39.8Z"/><path class="cls-1" d="M1.8,34.3a.9.9,0,1,1-.9-.9A.9.9,0,0,1,1.8,34.3Z"/><path class="cls-1" d="M7.7,34.3a.9.9,0,1,1-.9-.9A.9.9,0,0,1,7.7,34.3Z"/><path class="cls-1" d="M13.6,34.3a.9.9,0,1,1-.9-.9A.9.9,0,0,1,13.6,34.3Z"/><path class="cls-1" d="M19.5,34.3a.9.9,0,1,1-.9-.9A.9.9,0,0,1,19.5,34.3Z"/><path class="cls-1" d="M25.4,34.3a.9.9,0,1,1-.9-.9A.9.9,0,0,1,25.4,34.3Z"/><path class="cls-1" d="M31.3,34.3a.9.9,0,1,1-.9-.9A.9.9,0,0,1,31.3,34.3Z"/><path class="cls-1" d="M37.2,34.3a.9.9,0,0,1-.9.9.9.9,0,1,1,0-1.8A.9.9,0,0,1,37.2,34.3Z"/><path class="cls-1" d="M43.1,34.3a.9.9,0,0,1-.9.9.9.9,0,1,1,0-1.8A.9.9,0,0,1,43.1,34.3Z"/><path class="cls-1" d="M1.8,28.7a.9.9,0,1,1-.9-.9A.9.9,0,0,1,1.8,28.7Z"/><path class="cls-1" d="M7.7,28.7a.9.9,0,1,1-.9-.9A.9.9,0,0,1,7.7,28.7Z"/><path class="cls-1" d="M13.6,28.7a.9.9,0,1,1-.9-.9A.9.9,0,0,1,13.6,28.7Z"/><path class="cls-1" d="M19.5,28.7a.9.9,0,1,1-.9-.9A.9.9,0,0,1,19.5,28.7Z"/><path class="cls-1" d="M25.4,28.7a.9.9,0,1,1-.9-.9A.9.9,0,0,1,25.4,28.7Z"/><path class="cls-1" d="M31.3,28.7a.9.9,0,1,1-.9-.9A.9.9,0,0,1,31.3,28.7Z"/><path class="cls-1" d="M37.2,28.7a.9.9,0,0,1-.9.9.9.9,0,1,1,0-1.8A.9.9,0,0,1,37.2,28.7Z"/><path class="cls-1" d="M43.1,28.7a.9.9,0,0,1-.9.9.9.9,0,1,1,0-1.8A.9.9,0,0,1,43.1,28.7Z"/><path class="cls-1" d="M1.8,23.2a.9.9,0,0,1-1.8,0,.9.9,0,0,1,.9-1A.9.9,0,0,1,1.8,23.2Z"/><path class="cls-1" d="M7.7,23.2a.9.9,0,0,1-1.8,0,.9.9,0,1,1,1.8,0Z"/><path class="cls-1" d="M13.6,23.2a.9.9,0,1,1-1.8,0,.9.9,0,1,1,1.8,0Z"/><path class="cls-1" d="M19.5,23.2a.9.9,0,1,1-1.8,0,.9.9,0,1,1,1.8,0Z"/><path class="cls-1" d="M25.4,23.2a.9.9,0,1,1-1.8,0,.9.9,0,1,1,1.8,0Z"/><path class="cls-1" d="M31.3,23.2a.9.9,0,1,1-1.8,0,.9.9,0,1,1,1.8,0Z"/><path class="cls-1" d="M37.2,23.2a.9.9,0,0,1-.9.9,1,1,0,0,1-1-.9,1,1,0,0,1,1-1A.9.9,0,0,1,37.2,23.2Z"/><path class="cls-1" d="M43.1,23.2a.9.9,0,0,1-.9.9.9.9,0,0,1-1-.9.9.9,0,0,1,1-1A.9.9,0,0,1,43.1,23.2Z"/><path class="cls-1" d="M1.8,17.6a.9.9,0,1,1-.9-.9A.9.9,0,0,1,1.8,17.6Z"/><path class="cls-1" d="M7.7,17.6a.9.9,0,1,1-.9-.9A.9.9,0,0,1,7.7,17.6Z"/><path class="cls-1" d="M13.6,17.6a.9.9,0,1,1-.9-.9A.9.9,0,0,1,13.6,17.6Z"/><path class="cls-1" d="M19.5,17.6a.9.9,0,1,1-.9-.9A.9.9,0,0,1,19.5,17.6Z"/><path class="cls-1" d="M25.4,17.6a.9.9,0,1,1-.9-.9A.9.9,0,0,1,25.4,17.6Z"/><path class="cls-1" d="M31.3,17.6a.9.9,0,1,1-.9-.9A.9.9,0,0,1,31.3,17.6Z"/><path class="cls-1" d="M37.2,17.6a.9.9,0,0,1-.9.9.9.9,0,1,1,0-1.8A.9.9,0,0,1,37.2,17.6Z"/><path class="cls-1" d="M43.1,17.6a.9.9,0,0,1-.9.9.9.9,0,1,1,0-1.8A.9.9,0,0,1,43.1,17.6Z"/><path class="cls-1" d="M1.8,12a1,1,0,0,1-.9,1A1,1,0,0,1,0,12a.9.9,0,0,1,1.8,0Z"/><path class="cls-1" d="M7.7,12a1,1,0,0,1-.9,1,1,1,0,0,1-.9-1,.9.9,0,0,1,1.8,0Z"/><path class="cls-1" d="M13.6,12a1,1,0,0,1-.9,1,1,1,0,0,1-.9-1,.9.9,0,0,1,1.8,0Z"/><path class="cls-1" d="M19.5,12a.9.9,0,1,1-1.8,0,.9.9,0,0,1,1.8,0Z"/><path class="cls-1" d="M25.4,12a.9.9,0,1,1-1.8,0,.9.9,0,1,1,1.8,0Z"/><path class="cls-1" d="M31.3,12a.9.9,0,1,1-1.8,0,.9.9,0,0,1,1.8,0Z"/><path class="cls-1" d="M37.2,12a1,1,0,0,1-.9,1,1.1,1.1,0,0,1-1-1,1,1,0,0,1,1-.9A.9.9,0,0,1,37.2,12Z"/><path class="cls-1" d="M43.1,12a1,1,0,0,1-.9,1,1,1,0,0,1-1-1,.9.9,0,0,1,1-.9A.9.9,0,0,1,43.1,12Z"/><path class="cls-1" d="M1.8,6.5a.9.9,0,1,1-.9-.9A.9.9,0,0,1,1.8,6.5Z"/><path class="cls-1" d="M7.7,6.5a.9.9,0,1,1-.9-.9A.9.9,0,0,1,7.7,6.5Z"/><path class="cls-1" d="M13.6,6.5a.9.9,0,1,1-.9-.9A.9.9,0,0,1,13.6,6.5Z"/><path class="cls-1" d="M19.5,6.5a.9.9,0,1,1-.9-.9A.9.9,0,0,1,19.5,6.5Z"/><path class="cls-1" d="M25.4,6.5a.9.9,0,1,1-.9-.9A.9.9,0,0,1,25.4,6.5Z"/><path class="cls-1" d="M31.3,6.5a.9.9,0,1,1-.9-.9A.9.9,0,0,1,31.3,6.5Z"/><path class="cls-1" d="M37.2,6.5a.9.9,0,0,1-.9.9,1,1,0,0,1-1-.9,1,1,0,0,1,1-.9A.9.9,0,0,1,37.2,6.5Z"/><path class="cls-1" d="M43.1,6.5a.9.9,0,0,1-.9.9.9.9,0,1,1,0-1.8A.9.9,0,0,1,43.1,6.5Z"/><path class="cls-1" d="M1.8.9A.9.9,0,1,1,.9,0,.9.9,0,0,1,1.8.9Z"/><path class="cls-1" d="M7.7.9A.9.9,0,1,1,6.8,0,.9.9,0,0,1,7.7.9Z"/><path class="cls-1" d="M13.6.9a.9.9,0,1,1-.9-.9A.9.9,0,0,1,13.6.9Z"/><path class="cls-1" d="M19.5.9a.9.9,0,1,1-.9-.9A.9.9,0,0,1,19.5.9Z"/><path class="cls-1" d="M25.4.9a.9.9,0,1,1-.9-.9A.9.9,0,0,1,25.4.9Z"/><path class="cls-1" d="M31.3.9a.9.9,0,1,1-.9-.9A.9.9,0,0,1,31.3.9Z"/><path class="cls-1" d="M37.2.9a.9.9,0,0,1-.9.9,1,1,0,0,1-1-.9,1,1,0,0,1,1-.9A.9.9,0,0,1,37.2.9Z"/><path class="cls-1" d="M43.1.9a.9.9,0,0,1-.9.9.9.9,0,0,1-1-.9.9.9,0,0,1,1-.9A.9.9,0,0,1,43.1.9Z"/><rect class="cls-2" x="20.6" y="19.4" width="40.9" height="40.9" rx="1.6"/></svg>