<svg id="BACKGROUND_2" data-name="BACKGROUND 2" xmlns="http://www.w3.org/2000/svg" viewBox="0 0 60.8 62"><defs><style>.cls-1,.cls-3{fill:none;}.cls-1{stroke:#101011;stroke-linecap:round;stroke-linejoin:round;stroke-width:1.35px;}.cls-2{fill:#101011;}.cls-3{stroke:#00ceb5;stroke-miterlimit:10;stroke-width:0.89px;}</style></defs><path class="cls-1" d="M-30.2,52.9c.5,5.8,4.3,9.6,10.1,10.1h0c5.7.5,9.5,4.3,10.1,10.1h0c.5,5.7,4.3,9.5,10,10.1H0c5.8.5,9.6,4.3,10.1,10.1h0c.6,5.7,4.4,9.5,10.1,10"/><path class="cls-2" d="M39.8,60.1a1,1,0,0,1,1,1,1,1,0,0,1-1,.9.9.9,0,0,1-.9-.9A.9.9,0,0,1,39.8,60.1Z"/><path class="cls-2" d="M39.8,54.2a1.1,1.1,0,0,1,1,1,1,1,0,0,1-1,.9.9.9,0,0,1-.9-.9A1,1,0,0,1,39.8,54.2Z"/><path class="cls-2" d="M39.8,48.4a.9.9,0,1,1,0,1.8.9.9,0,0,1,0-1.8Z"/><path class="cls-2" d="M39.8,42.5a.9.9,0,1,1,0,1.8.9.9,0,1,1,0-1.8Z"/><path class="cls-2" d="M39.8,36.6a.9.9,0,1,1,0,1.8.9.9,0,0,1,0-1.8Z"/><path class="cls-2" d="M39.8,30.7a.9.9,0,1,1,0,1.8.9.9,0,1,1,0-1.8Z"/><path class="cls-2" d="M39.8,24.8a.9.9,0,1,1,0,1.8.9.9,0,1,1,0-1.8Z"/><path class="cls-2" d="M39.8,18.9a.9.9,0,1,1,0,1.8.9.9,0,1,1,0-1.8Z"/><path class="cls-2" d="M34.3,60.1a.9.9,0,0,1,.9,1,.9.9,0,0,1-1.8,0A.9.9,0,0,1,34.3,60.1Z"/><path class="cls-2" d="M34.3,54.2a1,1,0,0,1,.9,1,.9.9,0,0,1-1.8,0A1,1,0,0,1,34.3,54.2Z"/><path class="cls-2" d="M34.3,48.4a.9.9,0,1,1-.9.9A.9.9,0,0,1,34.3,48.4Z"/><path class="cls-2" d="M34.3,42.5a.9.9,0,1,1-.9.9A.9.9,0,0,1,34.3,42.5Z"/><path class="cls-2" d="M34.3,36.6a.9.9,0,1,1-.9.9A.9.9,0,0,1,34.3,36.6Z"/><path class="cls-2" d="M34.3,30.7a.9.9,0,1,1-.9.9A.9.9,0,0,1,34.3,30.7Z"/><path class="cls-2" d="M34.3,24.8a.9.9,0,1,1-.9.9A.9.9,0,0,1,34.3,24.8Z"/><path class="cls-2" d="M34.3,18.9a.9.9,0,1,1-.9.9A.9.9,0,0,1,34.3,18.9Z"/><path class="cls-2" d="M28.7,60.1a.9.9,0,0,1,.9,1,.9.9,0,1,1-1.8,0A.9.9,0,0,1,28.7,60.1Z"/><path class="cls-2" d="M28.7,54.2a1,1,0,0,1,.9,1,.9.9,0,0,1-1.8,0A1,1,0,0,1,28.7,54.2Z"/><path class="cls-2" d="M28.7,48.4a.9.9,0,1,1-.9.9A.9.9,0,0,1,28.7,48.4Z"/><path class="cls-2" d="M28.7,42.5a.9.9,0,1,1-.9.9A.9.9,0,0,1,28.7,42.5Z"/><path class="cls-2" d="M28.7,36.6a.9.9,0,1,1-.9.9A.9.9,0,0,1,28.7,36.6Z"/><path class="cls-2" d="M28.7,30.7a.9.9,0,1,1-.9.9A.9.9,0,0,1,28.7,30.7Z"/><path class="cls-2" d="M28.7,24.8a.9.9,0,1,1-.9.9A.9.9,0,0,1,28.7,24.8Z"/><path class="cls-2" d="M28.7,18.9a.9.9,0,1,1-.9.9A.9.9,0,0,1,28.7,18.9Z"/><path class="cls-2" d="M23.2,60.1a.9.9,0,0,1,.9,1,.9.9,0,0,1-.9.9.9.9,0,0,1-1-.9A.9.9,0,0,1,23.2,60.1Z"/><path class="cls-2" d="M23.2,54.2a1,1,0,0,1,.9,1,.9.9,0,0,1-.9.9.9.9,0,0,1-1-.9A1,1,0,0,1,23.2,54.2Z"/><path class="cls-2" d="M23.2,48.4a.9.9,0,1,1,0,1.8.9.9,0,1,1,0-1.8Z"/><path class="cls-2" d="M23.2,42.5a.9.9,0,1,1,0,1.8.9.9,0,1,1,0-1.8Z"/><path class="cls-2" d="M23.2,36.6a.9.9,0,0,1,0,1.8.9.9,0,1,1,0-1.8Z"/><path class="cls-2" d="M23.2,30.7a.9.9,0,1,1,0,1.8.9.9,0,1,1,0-1.8Z"/><path class="cls-2" d="M23.2,24.8a.9.9,0,0,1,0,1.8.9.9,0,1,1,0-1.8Z"/><path class="cls-2" d="M23.2,18.9a.9.9,0,0,1,0,1.8.9.9,0,1,1,0-1.8Z"/><path class="cls-2" d="M17.6,60.1a.9.9,0,0,1,.9,1,.9.9,0,1,1-1.8,0A.9.9,0,0,1,17.6,60.1Z"/><path class="cls-2" d="M17.6,54.2a1,1,0,0,1,.9,1,.9.9,0,1,1-1.8,0A1,1,0,0,1,17.6,54.2Z"/><path class="cls-2" d="M17.6,48.4a.9.9,0,1,1-.9.9A.9.9,0,0,1,17.6,48.4Z"/><path class="cls-2" d="M17.6,42.5a.9.9,0,1,1-.9.9A.9.9,0,0,1,17.6,42.5Z"/><path class="cls-2" d="M17.6,36.6a.9.9,0,1,1-.9.9A.9.9,0,0,1,17.6,36.6Z"/><path class="cls-2" d="M17.6,30.7a.9.9,0,1,1-.9.9A.9.9,0,0,1,17.6,30.7Z"/><path class="cls-2" d="M17.6,24.8a.9.9,0,1,1-.9.9A.9.9,0,0,1,17.6,24.8Z"/><path class="cls-2" d="M17.6,18.9a.9.9,0,1,1-.9.9A.9.9,0,0,1,17.6,18.9Z"/><path class="cls-2" d="M12,60.1a1,1,0,0,1,1,1,1,1,0,0,1-1,.9.9.9,0,0,1-.9-.9A.9.9,0,0,1,12,60.1Z"/><path class="cls-2" d="M12,54.2a1.1,1.1,0,0,1,1,1,1,1,0,0,1-1,.9.9.9,0,0,1-.9-.9A1,1,0,0,1,12,54.2Z"/><path class="cls-2" d="M12,48.4a.9.9,0,1,1,0,1.8.9.9,0,0,1,0-1.8Z"/><path class="cls-2" d="M12,42.5a.9.9,0,1,1,0,1.8.9.9,0,0,1,0-1.8Z"/><path class="cls-2" d="M12,36.6a.9.9,0,1,1,0,1.8.9.9,0,0,1,0-1.8Z"/><path class="cls-2" d="M12,30.7a.9.9,0,1,1,0,1.8.9.9,0,0,1,0-1.8Z"/><path class="cls-2" d="M12,24.8a.9.9,0,1,1,0,1.8.9.9,0,1,1,0-1.8Z"/><path class="cls-2" d="M12,18.9a.9.9,0,1,1,0,1.8.9.9,0,1,1,0-1.8Z"/><path class="cls-2" d="M6.5,60.1a.9.9,0,0,1,.9,1,.9.9,0,0,1-1.8,0A.9.9,0,0,1,6.5,60.1Z"/><path class="cls-2" d="M6.5,54.2a1,1,0,0,1,.9,1,.9.9,0,0,1-1.8,0A1,1,0,0,1,6.5,54.2Z"/><path class="cls-2" d="M6.5,48.4a.9.9,0,1,1-.9.9A.9.9,0,0,1,6.5,48.4Z"/><path class="cls-2" d="M6.5,42.5a.9.9,0,1,1-.9.9A.9.9,0,0,1,6.5,42.5Z"/><path class="cls-2" d="M6.5,36.6a.9.9,0,1,1-.9.9A.9.9,0,0,1,6.5,36.6Z"/><path class="cls-2" d="M6.5,30.7a.9.9,0,1,1-.9.9A.9.9,0,0,1,6.5,30.7Z"/><path class="cls-2" d="M6.5,24.8a.9.9,0,1,1-.9.9A.9.9,0,0,1,6.5,24.8Z"/><path class="cls-2" d="M6.5,18.9a.9.9,0,1,1-.9.9A.9.9,0,0,1,6.5,18.9Z"/><path class="cls-2" d="M.9,60.1a.9.9,0,0,1,.9,1,.9.9,0,0,1-1.8,0A.9.9,0,0,1,.9,60.1Z"/><path class="cls-2" d="M.9,54.2a1,1,0,0,1,.9,1,.9.9,0,0,1-1.8,0A1,1,0,0,1,.9,54.2Z"/><path class="cls-2" d="M.9,48.4a.9.9,0,1,1-.9.9A.9.9,0,0,1,.9,48.4Z"/><path class="cls-2" d="M.9,42.5a.9.9,0,1,1-.9.9A.9.9,0,0,1,.9,42.5Z"/><path class="cls-2" d="M.9,36.6a.9.9,0,1,1-.9.9A.9.9,0,0,1,.9,36.6Z"/><path class="cls-2" d="M.9,30.7a.9.9,0,1,1-.9.9A.9.9,0,0,1,.9,30.7Z"/><path class="cls-2" d="M.9,24.8a.9.9,0,1,1-.9.9A.9.9,0,0,1,.9,24.8Z"/><path class="cls-2" d="M.9,18.9a.9.9,0,1,1-.9.9A.9.9,0,0,1,.9,18.9Z"/><rect class="cls-3" x="19.4" y="0.4" width="40.9" height="40.9" rx="1.6" transform="translate(19 60.8) rotate(-90)"/></svg>