<svg id="BACKGROUND_2" data-name="BACKGROUND 2" xmlns="http://www.w3.org/2000/svg" viewBox="0 0 300 300"><defs><style>.cls-1{fill:#101011;}</style></defs><path class="cls-1" d="M97,280.2a6.1,6.1,0,0,1-6.1,6.2,6.2,6.2,0,1,1,0-12.3A6.1,6.1,0,0,1,97,280.2Z"/><path class="cls-1" d="M136.4,280.2a6.1,6.1,0,0,1-6.1,6.2,6.2,6.2,0,1,1,0-12.3A6.1,6.1,0,0,1,136.4,280.2Z"/><path class="cls-1" d="M175.9,280.2a6.2,6.2,0,0,1-6.2,6.2,6.2,6.2,0,0,1,0-12.3A6.1,6.1,0,0,1,175.9,280.2Z"/><path class="cls-1" d="M215.3,280.2a6.2,6.2,0,0,1-6.2,6.2,6.2,6.2,0,0,1,0-12.3A6.1,6.1,0,0,1,215.3,280.2Z"/><path class="cls-1" d="M57.6,243a6.2,6.2,0,0,1-6.2,6.2,6.1,6.1,0,0,1-6.1-6.2,6.1,6.1,0,0,1,6.1-6.1A6.1,6.1,0,0,1,57.6,243Z"/><path class="cls-1" d="M97,243a6.1,6.1,0,0,1-6.1,6.2,6.2,6.2,0,0,1-6.2-6.2,6.1,6.1,0,0,1,6.2-6.1A6.1,6.1,0,0,1,97,243Z"/><path class="cls-1" d="M136.4,243a6.1,6.1,0,0,1-6.1,6.2,6.2,6.2,0,0,1-6.2-6.2,6.1,6.1,0,0,1,6.2-6.1A6.1,6.1,0,0,1,136.4,243Z"/><path class="cls-1" d="M175.9,243a6.2,6.2,0,0,1-6.2,6.2,6.1,6.1,0,0,1-6.1-6.2,6.1,6.1,0,0,1,6.1-6.1A6.1,6.1,0,0,1,175.9,243Z"/><path class="cls-1" d="M215.3,243a6.2,6.2,0,0,1-6.2,6.2A6.1,6.1,0,0,1,203,243a6.1,6.1,0,0,1,6.1-6.1A6.1,6.1,0,0,1,215.3,243Z"/><path class="cls-1" d="M254.7,243a6.1,6.1,0,0,1-6.1,6.2,6.2,6.2,0,0,1-6.2-6.2,6.1,6.1,0,0,1,6.2-6.1A6.1,6.1,0,0,1,254.7,243Z"/><path class="cls-1" d="M57.6,205.8a6.2,6.2,0,0,1-6.2,6.2,6.1,6.1,0,0,1-6.1-6.2,6.1,6.1,0,0,1,6.1-6.1A6.1,6.1,0,0,1,57.6,205.8Z"/><path class="cls-1" d="M97,205.8a6.1,6.1,0,0,1-6.1,6.2,6.2,6.2,0,0,1-6.2-6.2,6.1,6.1,0,0,1,6.2-6.1A6.1,6.1,0,0,1,97,205.8Z"/><path class="cls-1" d="M136.4,205.8a6.1,6.1,0,0,1-6.1,6.2,6.2,6.2,0,0,1-6.2-6.2,6.1,6.1,0,0,1,6.2-6.1A6.1,6.1,0,0,1,136.4,205.8Z"/><path class="cls-1" d="M175.9,205.8a6.2,6.2,0,0,1-6.2,6.2,6.1,6.1,0,0,1-6.1-6.2,6.1,6.1,0,0,1,6.1-6.1A6.1,6.1,0,0,1,175.9,205.8Z"/><path class="cls-1" d="M215.3,205.8a6.2,6.2,0,0,1-6.2,6.2,6.1,6.1,0,0,1-6.1-6.2,6.1,6.1,0,0,1,6.1-6.1A6.1,6.1,0,0,1,215.3,205.8Z"/><path class="cls-1" d="M254.7,205.8a6.1,6.1,0,0,1-6.1,6.2,6.2,6.2,0,0,1-6.2-6.2,6.1,6.1,0,0,1,6.2-6.1A6.1,6.1,0,0,1,254.7,205.8Z"/><path class="cls-1" d="M18.2,168.6a6.2,6.2,0,1,1-6.2-6.2A6.2,6.2,0,0,1,18.2,168.6Z"/><path class="cls-1" d="M57.6,168.6a6.2,6.2,0,0,1-6.2,6.2,6.2,6.2,0,0,1,0-12.4A6.2,6.2,0,0,1,57.6,168.6Z"/><path class="cls-1" d="M97,168.6a6.1,6.1,0,0,1-6.1,6.2,6.2,6.2,0,1,1,0-12.4A6.1,6.1,0,0,1,97,168.6Z"/><path class="cls-1" d="M136.4,168.6a6.1,6.1,0,0,1-6.1,6.2,6.2,6.2,0,1,1,0-12.4A6.1,6.1,0,0,1,136.4,168.6Z"/><path class="cls-1" d="M175.9,168.6a6.2,6.2,0,0,1-6.2,6.2,6.2,6.2,0,0,1,0-12.4A6.2,6.2,0,0,1,175.9,168.6Z"/><path class="cls-1" d="M215.3,168.6a6.2,6.2,0,0,1-6.2,6.2,6.2,6.2,0,0,1,0-12.4A6.2,6.2,0,0,1,215.3,168.6Z"/><path class="cls-1" d="M254.7,168.6a6.1,6.1,0,0,1-6.1,6.2,6.2,6.2,0,1,1,0-12.4A6.1,6.1,0,0,1,254.7,168.6Z"/><circle class="cls-1" cx="288" cy="168.6" r="6.2"/><path class="cls-1" d="M18.2,131.4a6.2,6.2,0,1,1-6.2-6.2A6.2,6.2,0,0,1,18.2,131.4Z"/><path class="cls-1" d="M57.6,131.4a6.2,6.2,0,0,1-6.2,6.2,6.2,6.2,0,0,1,0-12.4A6.2,6.2,0,0,1,57.6,131.4Z"/><path class="cls-1" d="M97,131.4a6.1,6.1,0,0,1-6.1,6.2,6.2,6.2,0,0,1,0-12.4A6.1,6.1,0,0,1,97,131.4Z"/><path class="cls-1" d="M136.4,131.4a6.1,6.1,0,0,1-6.1,6.2,6.2,6.2,0,0,1,0-12.4A6.1,6.1,0,0,1,136.4,131.4Z"/><path class="cls-1" d="M175.9,131.4a6.2,6.2,0,0,1-6.2,6.2,6.2,6.2,0,0,1,0-12.4A6.2,6.2,0,0,1,175.9,131.4Z"/><path class="cls-1" d="M215.3,131.4a6.2,6.2,0,0,1-6.2,6.2,6.2,6.2,0,0,1,0-12.4A6.2,6.2,0,0,1,215.3,131.4Z"/><path class="cls-1" d="M254.7,131.4a6.1,6.1,0,0,1-6.1,6.2,6.2,6.2,0,1,1,0-12.4A6.1,6.1,0,0,1,254.7,131.4Z"/><path class="cls-1" d="M294.2,131.4a6.2,6.2,0,1,1-6.2-6.2A6.2,6.2,0,0,1,294.2,131.4Z"/><path class="cls-1" d="M57.6,94.2a6.1,6.1,0,0,1-6.2,6.1,6.1,6.1,0,0,1-6.1-6.1A6.1,6.1,0,0,1,51.4,88,6.2,6.2,0,0,1,57.6,94.2Z"/><path class="cls-1" d="M97,94.2a6.1,6.1,0,0,1-6.1,6.1,6.1,6.1,0,0,1-6.2-6.1A6.2,6.2,0,0,1,90.9,88,6.1,6.1,0,0,1,97,94.2Z"/><path class="cls-1" d="M136.4,94.2a6.1,6.1,0,0,1-6.1,6.1,6.1,6.1,0,0,1-6.2-6.1,6.2,6.2,0,0,1,6.2-6.2A6.1,6.1,0,0,1,136.4,94.2Z"/><path class="cls-1" d="M175.9,94.2a6.1,6.1,0,0,1-6.2,6.1,6.1,6.1,0,0,1-6.1-6.1,6.1,6.1,0,0,1,6.1-6.2A6.2,6.2,0,0,1,175.9,94.2Z"/><path class="cls-1" d="M215.3,94.2a6.1,6.1,0,0,1-6.2,6.1,6.1,6.1,0,0,1-6.1-6.1,6.1,6.1,0,0,1,6.1-6.2A6.2,6.2,0,0,1,215.3,94.2Z"/><path class="cls-1" d="M254.7,94.2a6.1,6.1,0,0,1-6.1,6.1,6.1,6.1,0,0,1-6.2-6.1,6.2,6.2,0,0,1,6.2-6.2A6.1,6.1,0,0,1,254.7,94.2Z"/><path class="cls-1" d="M57.6,57a6.1,6.1,0,0,1-6.2,6.1A6.1,6.1,0,0,1,45.3,57a6.1,6.1,0,0,1,6.1-6.2A6.2,6.2,0,0,1,57.6,57Z"/><path class="cls-1" d="M97,57a6.1,6.1,0,0,1-6.1,6.1A6.1,6.1,0,0,1,84.7,57a6.2,6.2,0,0,1,6.2-6.2A6.1,6.1,0,0,1,97,57Z"/><path class="cls-1" d="M136.4,57a6.1,6.1,0,0,1-6.1,6.1,6.1,6.1,0,0,1-6.2-6.1,6.2,6.2,0,0,1,6.2-6.2A6.1,6.1,0,0,1,136.4,57Z"/><path class="cls-1" d="M175.9,57a6.1,6.1,0,0,1-6.2,6.1,6.1,6.1,0,0,1-6.1-6.1,6.1,6.1,0,0,1,6.1-6.2A6.2,6.2,0,0,1,175.9,57Z"/><path class="cls-1" d="M215.3,57a6.1,6.1,0,0,1-6.2,6.1A6.1,6.1,0,0,1,203,57a6.1,6.1,0,0,1,6.1-6.2A6.2,6.2,0,0,1,215.3,57Z"/><path class="cls-1" d="M254.7,57a6.1,6.1,0,0,1-6.1,6.1,6.1,6.1,0,0,1-6.2-6.1,6.2,6.2,0,0,1,6.2-6.2A6.1,6.1,0,0,1,254.7,57Z"/><path class="cls-1" d="M97,19.8a6.1,6.1,0,0,1-6.1,6.1,6.2,6.2,0,1,1,0-12.3A6.1,6.1,0,0,1,97,19.8Z"/><path class="cls-1" d="M136.4,19.8a6.1,6.1,0,0,1-6.1,6.1,6.2,6.2,0,1,1,0-12.3A6.1,6.1,0,0,1,136.4,19.8Z"/><path class="cls-1" d="M175.9,19.8a6.1,6.1,0,0,1-6.2,6.1,6.2,6.2,0,0,1,0-12.3A6.2,6.2,0,0,1,175.9,19.8Z"/><path class="cls-1" d="M215.3,19.8a6.1,6.1,0,0,1-6.2,6.1,6.2,6.2,0,0,1,0-12.3A6.2,6.2,0,0,1,215.3,19.8Z"/></svg>